<svg width="48" height="23" viewBox="0 0 48 23" fill="none" xmlns="http://www.w3.org/2000/svg">
<path fill-rule="evenodd" clip-rule="evenodd" d="M0.4375 5.93182L0.437574 11.3871L1.67464 11.3927C2.80335 11.3977 2.97005 11.4161 3.5765 11.6024C5.63081 12.2332 7.22971 13.6081 8.08839 15.4819C8.43745 16.2438 8.61722 16.9692 8.74433 18.1284C8.99804 20.4428 9.75457 21.6818 10.8147 22.1486C11.2299 22.3315 11.5765 22.521 12.2549 22.521C12.8422 22.521 13.8938 22.4668 14.7661 20.9943C15.6925 19.4305 16.3513 17.5954 16.8112 15.2473C17.3881 12.3022 16.9841 9.09996 16.6421 7.56221C16.0421 4.86512 14.9135 2.62746 13.615 1.56099C13.0906 1.13023 12.3511 0.747277 11.8266 0.634895C11.262 0.513949 10.0018 0.530184 9.48831 0.665057C8.43442 0.941879 7.0398 1.81913 6.64164 3.30659C6.37169 4.31512 6.68116 5.58335 6.91935 6.07444C7.56045 7.39576 8.33508 8.06425 10.9993 9.59529C13.4779 11.0196 14.0939 11.638 14.332 12.9408C14.4917 13.8149 14.1961 14.6216 13.5575 15.0539C13.0915 15.3694 12.6954 15.4708 12.1072 15.4255C11.1556 15.3522 10.5226 14.9221 9.85864 13.8974C9.60095 13.4998 8.02783 10.7782 6.36275 7.84954C4.69768 4.92083 3.07382 2.06473 2.75423 1.50275L2.17318 0.480808L1.30534 0.478722L0.4375 0.476562V5.93182ZM20.2317 2.4129V4.34924H22.3366H24.4416V2.4129V0.476562H22.3366H20.2317V2.4129ZM27.913 11.5733V22.521H30.018H32.1229V11.5733V0.625511H30.018H27.913V11.5733ZM35.5943 11.5733V22.521H37.6993H39.8043V11.5733V0.625511H37.6993H35.5943V11.5733ZM20.2317 14.4405V22.521H22.3366H24.4416V14.4405V6.36005H22.3366H20.2317V14.4405ZM43.0541 20.324V22.521H45.3068H47.5595V20.324V18.127H45.3068H43.0541V20.324Z" fill="#383838"/>
</svg>
