<svg width="165" height="55" viewBox="0 0 165 55" fill="none" xmlns="http://www.w3.org/2000/svg">
<path d="M145.917 42.9763H146.841C146.863 42.6025 146.994 42.3276 147.203 42.1407C147.423 41.9648 147.742 41.8659 148.182 41.8659C148.611 41.8659 148.93 41.9428 149.16 42.0967C149.391 42.2507 149.501 42.4926 149.501 42.8444C149.501 43.0753 149.457 43.2292 149.369 43.3392C149.281 43.4381 149.16 43.5041 149.007 43.5151L147.39 43.713C147.181 43.746 146.972 43.79 146.764 43.8669C146.555 43.9549 146.368 44.0538 146.203 44.2078C146.049 44.3507 145.917 44.5266 145.818 44.7465C145.708 44.9664 145.664 45.2193 145.664 45.5162C145.664 45.791 145.708 46.0329 145.818 46.2308C145.917 46.4397 146.049 46.6157 146.214 46.7586C146.379 46.8905 146.577 47.0005 146.786 47.0664C146.994 47.1434 147.203 47.1764 147.423 47.1764C147.687 47.1764 147.918 47.1544 148.127 47.1104C148.336 47.0554 148.523 46.9895 148.688 46.9015C148.864 46.8246 149.018 46.7256 149.149 46.6047C149.281 46.4947 149.413 46.3738 149.534 46.2418C149.556 46.3958 149.578 46.5277 149.622 46.6266C149.677 46.7366 149.743 46.8246 149.82 46.8905C149.908 46.9565 150.007 47.0005 150.139 47.0335C150.26 47.0554 150.403 47.0774 150.579 47.0774C150.689 47.0774 150.788 47.0664 150.865 47.0445C150.942 47.0335 151.03 47.0115 151.107 46.9895V46.3078C151.052 46.3188 150.997 46.3298 150.942 46.3298C150.887 46.3408 150.832 46.3518 150.788 46.3518C150.678 46.3518 150.59 46.3188 150.546 46.2528C150.491 46.1869 150.469 46.0989 150.469 46.0109V42.6685C150.469 42.3826 150.414 42.1297 150.282 41.9318C150.161 41.7339 149.996 41.558 149.787 41.437C149.589 41.3051 149.358 41.2172 149.094 41.1622C148.831 41.0962 148.556 41.0742 148.281 41.0742C147.94 41.0742 147.632 41.1072 147.346 41.1732C147.06 41.2391 146.819 41.3491 146.61 41.503C146.401 41.646 146.236 41.8439 146.115 42.0858C145.994 42.3276 145.928 42.6245 145.917 42.9763ZM149.479 44.0758V44.9994C149.479 45.1643 149.446 45.3073 149.391 45.4392C149.325 45.5821 149.248 45.6921 149.149 45.802C149.05 45.901 148.93 45.9889 148.809 46.0659C148.677 46.1319 148.556 46.1978 148.413 46.2418C148.281 46.2968 148.16 46.3188 148.028 46.3408C147.907 46.3738 147.797 46.3848 147.698 46.3848C147.544 46.3848 147.401 46.3628 147.269 46.3188C147.148 46.2748 147.038 46.2088 146.95 46.1209C146.852 46.0439 146.786 45.934 146.731 45.813C146.676 45.6811 146.654 45.5382 146.654 45.3732C146.654 45.2303 146.687 45.1094 146.742 44.9994C146.808 44.9004 146.884 44.8015 147.005 44.7245C147.115 44.6586 147.247 44.5926 147.39 44.5486C147.544 44.4936 147.709 44.4716 147.885 44.4387L148.358 44.3727C148.512 44.3617 148.666 44.3397 148.809 44.3067C148.941 44.2847 149.072 44.2517 149.193 44.2188C149.303 44.1748 149.402 44.1308 149.479 44.0758Z" fill="#E2E1D9"/>
<path d="M140.81 43.5699V41.25H139.82V47.0003H140.81V44.4275H143.493V47.0003H144.482V41.25H143.493V43.5699H140.81Z" fill="#E2E1D9"/>
<path d="M134.96 39.0186H134.048C134.059 39.2385 134.103 39.4364 134.191 39.6013C134.29 39.7772 134.411 39.9201 134.565 40.0521C134.73 40.173 134.927 40.261 135.147 40.3269C135.378 40.3929 135.631 40.4259 135.895 40.4259C136.17 40.4259 136.423 40.3929 136.654 40.3269C136.885 40.261 137.071 40.162 137.247 40.0411C137.401 39.9201 137.522 39.7772 137.621 39.6013C137.709 39.4254 137.753 39.2275 137.753 39.0186H136.841C136.797 39.2494 136.698 39.4364 136.555 39.5683C136.412 39.7002 136.192 39.7662 135.895 39.7662C135.62 39.7662 135.4 39.6892 135.246 39.5573C135.103 39.4254 135.004 39.2494 134.96 39.0186ZM134.4 45.6595V41.2505H133.41V47.0009H134.543L137.357 42.5919H137.379V47.0009H138.38V41.2505H137.247L134.422 45.6595H134.4Z" fill="#E2E1D9"/>
<path d="M127.288 42.9763H128.212C128.234 42.6025 128.366 42.3276 128.574 42.1407C128.794 41.9648 129.113 41.8659 129.553 41.8659C129.982 41.8659 130.301 41.9428 130.532 42.0967C130.762 42.2507 130.872 42.4926 130.872 42.8444C130.872 43.0753 130.828 43.2292 130.74 43.3392C130.652 43.4381 130.532 43.5041 130.378 43.5151L128.761 43.713C128.552 43.746 128.344 43.79 128.135 43.8669C127.926 43.9549 127.739 44.0538 127.574 44.2078C127.42 44.3507 127.288 44.5266 127.189 44.7465C127.079 44.9664 127.035 45.2193 127.035 45.5162C127.035 45.791 127.079 46.0329 127.189 46.2308C127.288 46.4397 127.42 46.6157 127.585 46.7586C127.75 46.8905 127.948 47.0005 128.157 47.0664C128.366 47.1434 128.574 47.1764 128.794 47.1764C129.058 47.1764 129.289 47.1544 129.498 47.1104C129.707 47.0554 129.894 46.9895 130.059 46.9015C130.235 46.8246 130.389 46.7256 130.521 46.6047C130.652 46.4947 130.784 46.3738 130.905 46.2418C130.927 46.3958 130.949 46.5277 130.993 46.6266C131.048 46.7366 131.114 46.8246 131.191 46.8905C131.279 46.9565 131.378 47.0005 131.51 47.0335C131.631 47.0554 131.774 47.0774 131.95 47.0774C132.06 47.0774 132.159 47.0664 132.236 47.0445C132.313 47.0335 132.401 47.0115 132.478 46.9895V46.3078C132.423 46.3188 132.368 46.3298 132.313 46.3298C132.258 46.3408 132.203 46.3518 132.159 46.3518C132.049 46.3518 131.961 46.3188 131.917 46.2528C131.862 46.1869 131.84 46.0989 131.84 46.0109V42.6685C131.84 42.3826 131.785 42.1297 131.653 41.9318C131.532 41.7339 131.367 41.558 131.158 41.437C130.96 41.3051 130.729 41.2172 130.466 41.1622C130.202 41.0962 129.927 41.0742 129.652 41.0742C129.311 41.0742 129.003 41.1072 128.717 41.1732C128.432 41.2391 128.19 41.3491 127.981 41.503C127.772 41.646 127.607 41.8439 127.486 42.0858C127.365 42.3276 127.299 42.6245 127.288 42.9763ZM130.85 44.0758V44.9994C130.85 45.1643 130.817 45.3073 130.762 45.4392C130.696 45.5821 130.619 45.6921 130.521 45.802C130.422 45.901 130.301 45.9889 130.18 46.0659C130.048 46.1319 129.927 46.1978 129.784 46.2418C129.652 46.2968 129.531 46.3188 129.399 46.3408C129.278 46.3738 129.168 46.3848 129.069 46.3848C128.915 46.3848 128.772 46.3628 128.64 46.3188C128.519 46.2748 128.41 46.2088 128.322 46.1209C128.223 46.0439 128.157 45.934 128.102 45.813C128.047 45.6811 128.025 45.5382 128.025 45.3732C128.025 45.2303 128.058 45.1094 128.113 44.9994C128.179 44.9004 128.256 44.8015 128.377 44.7245C128.486 44.6586 128.618 44.5926 128.761 44.5486C128.915 44.4936 129.08 44.4716 129.256 44.4387L129.729 44.3727C129.883 44.3617 130.037 44.3397 130.18 44.3067C130.312 44.2847 130.444 44.2517 130.565 44.2188C130.674 44.1748 130.773 44.1308 130.85 44.0758Z" fill="#E2E1D9"/>
<path d="M123.792 43.68H123.287V44.5046L123.441 44.4826H123.617C123.682 44.4716 123.737 44.4716 123.803 44.4716H123.957C124.188 44.4716 124.386 44.4826 124.551 44.5156C124.705 44.5596 124.837 44.6146 124.936 44.6915C125.024 44.7575 125.101 44.8565 125.145 44.9554C125.178 45.0544 125.2 45.1753 125.2 45.3073C125.2 45.6151 125.09 45.857 124.859 46.0439C124.628 46.2308 124.287 46.3188 123.836 46.3188C123.66 46.3188 123.496 46.3078 123.331 46.2638C123.166 46.2308 123.012 46.1649 122.88 46.0879C122.737 46.0109 122.627 45.89 122.528 45.7581C122.429 45.6151 122.374 45.4392 122.341 45.2303H121.352C121.374 45.5162 121.451 45.78 121.582 46.0219C121.703 46.2638 121.879 46.4727 122.088 46.6376C122.308 46.8136 122.561 46.9455 122.858 47.0335C123.155 47.1324 123.485 47.1764 123.847 47.1764C124.133 47.1764 124.408 47.1434 124.694 47.0664C124.969 46.9895 125.222 46.8685 125.442 46.7146C125.662 46.5497 125.848 46.3628 125.98 46.1209C126.112 45.89 126.189 45.6151 126.189 45.2853C126.189 45.0544 126.156 44.8675 126.09 44.7025C126.013 44.5486 125.925 44.4167 125.826 44.3067C125.717 44.2078 125.607 44.1308 125.486 44.0758C125.365 44.0209 125.255 43.9879 125.156 43.9659V43.9439C125.244 43.8889 125.343 43.8339 125.442 43.768C125.552 43.691 125.64 43.614 125.717 43.5151C125.805 43.4051 125.87 43.2952 125.914 43.1523C125.958 43.0203 125.991 42.8774 125.991 42.6905C125.991 42.4156 125.925 42.1847 125.805 41.9758C125.684 41.7779 125.53 41.602 125.332 41.47C125.134 41.3381 124.903 41.2391 124.65 41.1732C124.397 41.1072 124.144 41.0742 123.891 41.0742C123.748 41.0742 123.595 41.0852 123.43 41.1072C123.265 41.1402 123.111 41.1732 122.946 41.2391C122.792 41.2941 122.638 41.3711 122.484 41.47C122.341 41.558 122.209 41.6789 122.088 41.8219C121.967 41.9648 121.868 42.1407 121.791 42.3276C121.714 42.5255 121.659 42.7564 121.637 43.0093H122.561C122.583 42.7894 122.66 42.6025 122.759 42.4596C122.858 42.3166 122.968 42.2067 123.111 42.1297C123.232 42.0528 123.364 41.9978 123.507 41.9758C123.639 41.9538 123.759 41.9318 123.858 41.9318C124.045 41.9318 124.21 41.9538 124.353 41.9978C124.507 42.0528 124.617 42.1077 124.716 42.1957C124.804 42.2727 124.881 42.3716 124.936 42.4706C124.98 42.5805 125.002 42.6905 125.002 42.8004C125.002 42.9543 124.969 43.0973 124.892 43.2072C124.804 43.3172 124.716 43.4051 124.595 43.4711C124.474 43.5481 124.342 43.5921 124.199 43.625C124.056 43.658 123.924 43.68 123.792 43.68Z" fill="#E2E1D9"/>
<path d="M116.38 45.659V41.25H115.391V47.0003H116.523L119.338 42.5914H119.36V47.0003H120.36V41.25H119.228L116.402 45.659H116.38Z" fill="#E2E1D9"/>
<path d="M109.076 48.4077V47.0003H113.518V48.4077H114.441V46.1427H113.628V41.25H109.615C109.615 41.6678 109.604 42.0856 109.593 42.5034C109.582 42.9102 109.549 43.328 109.494 43.7348C109.45 44.1527 109.373 44.5485 109.285 44.9553C109.186 45.3621 109.065 45.7579 108.911 46.1427H108.152V48.4077H109.076ZM110.56 42.1076H112.638V46.1427H109.912C110.032 45.8349 110.12 45.505 110.197 45.1642C110.274 44.8343 110.329 44.4935 110.373 44.1417C110.417 43.8008 110.461 43.46 110.483 43.1081C110.516 42.7673 110.527 42.4375 110.56 42.1076Z" fill="#E2E1D9"/>
<path d="M149.191 31.25V32.1076H151.17V37.0003H152.16V32.1076H154.139V31.25H149.191Z" fill="#E2E1D9"/>
<path d="M146.16 35.9338L144.631 31.25H143.543L145.676 37.1543L145.357 37.9679C145.291 38.1328 145.214 38.2538 145.093 38.3417C144.983 38.4297 144.829 38.4737 144.653 38.4737C144.544 38.4737 144.423 38.4627 144.324 38.4407C144.225 38.4187 144.137 38.3967 144.071 38.3747V39.2653C144.126 39.2873 144.203 39.2983 144.291 39.3093C144.368 39.3203 144.478 39.3313 144.62 39.3313C144.796 39.3313 144.95 39.3203 145.082 39.2983C145.225 39.2873 145.335 39.2433 145.456 39.1883C145.555 39.1333 145.665 39.0564 145.753 38.9574C145.841 38.8585 145.929 38.7375 146.017 38.5836C146.116 38.4297 146.204 38.2318 146.292 38.0119C146.391 37.792 146.49 37.5281 146.6 37.2312L148.799 31.25H147.71L146.182 35.9338H146.16Z" fill="#E2E1D9"/>
<path d="M138.199 31.25V32.1076H140.178V37.0003H141.168V32.1076H143.147V31.25H138.199Z" fill="#E2E1D9"/>
<path d="M133.228 35.659V31.25H132.238V37.0003H133.371L136.185 32.5914H136.207V37.0003H137.208V31.25H136.076L133.25 35.659H133.228Z" fill="#E2E1D9"/>
<path d="M126.289 31.25V32.1076H128.268V37.0003H129.258V32.1076H131.237V31.25H126.289Z" fill="#E2E1D9"/>
<path d="M125.762 34.9774H124.839C124.806 35.1973 124.74 35.3952 124.652 35.5711C124.575 35.7471 124.465 35.89 124.344 36.0109C124.223 36.1319 124.091 36.2308 123.937 36.2858C123.772 36.3518 123.618 36.3848 123.442 36.3848C123.2 36.3848 122.98 36.3408 122.793 36.2528C122.596 36.1759 122.442 36.0439 122.31 35.857C122.167 35.6811 122.068 35.4612 122.002 35.1863C121.925 34.9114 121.892 34.5926 121.892 34.2078C121.892 33.8669 121.925 33.5701 121.991 33.2842C122.057 32.9983 122.156 32.7564 122.299 32.5585C122.431 32.3606 122.596 32.2067 122.804 32.0967C123.002 31.9868 123.233 31.9318 123.508 31.9318C123.904 31.9318 124.212 32.0418 124.432 32.2617C124.652 32.4816 124.795 32.7894 124.839 33.1852H125.762C125.751 33.0423 125.729 32.8774 125.696 32.7235C125.652 32.5585 125.597 32.4046 125.531 32.2397C125.454 32.0858 125.355 31.9428 125.234 31.7999C125.113 31.6569 124.97 31.536 124.806 31.4261C124.63 31.3161 124.432 31.2391 124.201 31.1732C123.97 31.1072 123.706 31.0742 123.398 31.0742C123.068 31.0742 122.749 31.1402 122.453 31.2831C122.145 31.4371 121.881 31.635 121.661 31.8988C121.43 32.1627 121.243 32.4816 121.111 32.8664C120.979 33.2512 120.902 33.68 120.902 34.1528C120.902 34.5376 120.946 34.8895 121.012 35.1753C121.078 35.4832 121.177 35.7471 121.298 35.967C121.419 36.1978 121.562 36.3848 121.716 36.5387C121.881 36.6926 122.046 36.8136 122.222 36.9125C122.398 37.0005 122.574 37.0774 122.771 37.1214C122.958 37.1544 123.134 37.1764 123.299 37.1764C123.607 37.1764 123.882 37.1434 124.124 37.0774C124.366 37.0005 124.575 36.9125 124.751 36.7916C124.926 36.6816 125.08 36.5387 125.201 36.3958C125.322 36.2418 125.421 36.0879 125.498 35.923C125.575 35.7581 125.641 35.6041 125.685 35.4282C125.718 35.2633 125.751 35.1203 125.762 34.9774Z" fill="#E2E1D9"/>
<path d="M116.122 33.5699V31.25H115.133V37.0003H116.122V34.4275H118.805V37.0003H119.795V31.25H118.805V33.5699H116.122Z" fill="#E2E1D9"/>
<path d="M109.712 35.659V31.25H108.723V37.0003H109.855L112.67 32.5914H112.692V37.0003H113.692V31.25H112.56L109.734 35.659H109.712Z" fill="#E2E1D9"/>
<path d="M150.764 24.439V23.4385H148.07V24.439H150.764Z" fill="#E2E1D9"/>
<path d="M143.212 23.5699V21.25H142.223V27.0003H143.212V24.4275H145.895V27.0003H146.884V21.25H145.895V23.5699H143.212Z" fill="#E2E1D9"/>
<path d="M137.363 19.0186H136.45C136.461 19.2385 136.505 19.4364 136.593 19.6013C136.692 19.7772 136.813 19.9201 136.967 20.0521C137.132 20.173 137.33 20.261 137.55 20.3269C137.781 20.3929 138.033 20.4259 138.297 20.4259C138.572 20.4259 138.825 20.3929 139.056 20.3269C139.287 20.261 139.474 20.162 139.65 20.0411C139.804 19.9201 139.925 19.7772 140.024 19.6013C140.112 19.4254 140.155 19.2275 140.155 19.0186H139.243C139.199 19.2494 139.1 19.4364 138.957 19.5683C138.814 19.7002 138.594 19.7662 138.297 19.7662C138.022 19.7662 137.803 19.6892 137.649 19.5573C137.506 19.4254 137.407 19.2494 137.363 19.0186ZM136.802 25.6595V21.2505H135.812V27.0009H136.945L139.76 22.5919H139.782V27.0009H140.782V21.2505H139.65L136.824 25.6595H136.802Z" fill="#E2E1D9"/>
<path d="M129.694 22.9763H130.618C130.64 22.6025 130.772 22.3276 130.981 22.1407C131.201 21.9648 131.519 21.8659 131.959 21.8659C132.388 21.8659 132.707 21.9428 132.938 22.0967C133.169 22.2507 133.279 22.4926 133.279 22.8444C133.279 23.0753 133.235 23.2292 133.147 23.3392C133.059 23.4381 132.938 23.5041 132.784 23.5151L131.168 23.713C130.959 23.746 130.75 23.79 130.541 23.8669C130.332 23.9549 130.145 24.0538 129.98 24.2078C129.826 24.3507 129.694 24.5266 129.595 24.7465C129.485 24.9664 129.441 25.2193 129.441 25.5162C129.441 25.791 129.485 26.0329 129.595 26.2308C129.694 26.4397 129.826 26.6157 129.991 26.7586C130.156 26.8905 130.354 27.0005 130.563 27.0664C130.772 27.1434 130.981 27.1764 131.201 27.1764C131.464 27.1764 131.695 27.1544 131.904 27.1104C132.113 27.0555 132.3 26.9895 132.465 26.9015C132.641 26.8246 132.795 26.7256 132.927 26.6047C133.059 26.4947 133.191 26.3738 133.312 26.2418C133.334 26.3958 133.356 26.5277 133.4 26.6266C133.455 26.7366 133.521 26.8246 133.597 26.8905C133.685 26.9565 133.784 27.0005 133.916 27.0335C134.037 27.0555 134.18 27.0774 134.356 27.0774C134.466 27.0774 134.565 27.0664 134.642 27.0445C134.719 27.0335 134.807 27.0115 134.884 26.9895V26.3078C134.829 26.3188 134.774 26.3298 134.719 26.3298C134.664 26.3408 134.609 26.3518 134.565 26.3518C134.455 26.3518 134.367 26.3188 134.323 26.2528C134.268 26.1869 134.246 26.0989 134.246 26.0109V22.6685C134.246 22.3826 134.191 22.1297 134.059 21.9318C133.938 21.7339 133.773 21.558 133.564 21.4371C133.367 21.3051 133.136 21.2172 132.872 21.1622C132.608 21.0962 132.333 21.0742 132.058 21.0742C131.717 21.0742 131.409 21.1072 131.124 21.1732C130.838 21.2391 130.596 21.3491 130.387 21.503C130.178 21.646 130.013 21.8439 129.892 22.0858C129.771 22.3276 129.705 22.6245 129.694 22.9763ZM133.257 24.0758V24.9994C133.257 25.1643 133.224 25.3073 133.169 25.4392C133.103 25.5821 133.026 25.6921 132.927 25.802C132.828 25.901 132.707 25.9889 132.586 26.0659C132.454 26.1319 132.333 26.1978 132.19 26.2418C132.058 26.2968 131.937 26.3188 131.805 26.3408C131.684 26.3738 131.574 26.3848 131.475 26.3848C131.322 26.3848 131.179 26.3628 131.047 26.3188C130.926 26.2748 130.816 26.2088 130.728 26.1209C130.629 26.0439 130.563 25.934 130.508 25.813C130.453 25.6811 130.431 25.5382 130.431 25.3732C130.431 25.2303 130.464 25.1094 130.519 24.9994C130.585 24.9004 130.662 24.8015 130.783 24.7245C130.893 24.6586 131.025 24.5926 131.168 24.5486C131.322 24.4936 131.486 24.4716 131.662 24.4387L132.135 24.3727C132.289 24.3617 132.443 24.3397 132.586 24.3067C132.718 24.2847 132.85 24.2517 132.971 24.2188C133.081 24.1748 133.18 24.1308 133.257 24.0758Z" fill="#E2E1D9"/>
<path d="M125.019 23.493L125.063 22.1076H127.262V27.0003H128.251V21.25H124.117L124.073 23.372C124.062 23.7898 124.04 24.1417 124.018 24.4495C123.996 24.7464 123.952 24.9993 123.919 25.2082C123.875 25.4171 123.82 25.593 123.776 25.7249C123.721 25.8569 123.655 25.9558 123.6 26.0328C123.534 26.0988 123.468 26.1427 123.402 26.1757C123.336 26.1977 123.259 26.2087 123.182 26.2087C123.072 26.2087 122.952 26.1867 122.809 26.1317V27.0003C122.853 27.0333 122.908 27.0663 122.985 27.0993C123.05 27.1213 123.138 27.1433 123.237 27.1433C123.512 27.1433 123.754 27.0773 123.963 26.9674C124.172 26.8464 124.359 26.6485 124.502 26.3626C124.656 26.0768 124.766 25.7029 124.854 25.2302C124.942 24.7684 124.997 24.1856 125.019 23.493Z" fill="#E2E1D9"/>
<path d="M118.271 23.5699V21.25H117.281V27.0003H118.271V24.4275H120.954V27.0003H121.943V21.25H120.954V23.5699H118.271Z" fill="#E2E1D9"/>
<path d="M116.122 23.0533C116.122 22.4376 116.034 21.8878 115.858 21.3711C115.682 20.8653 115.441 20.4255 115.111 20.0627C114.781 19.6998 114.385 19.414 113.901 19.2161C113.428 19.0072 112.879 18.9082 112.274 18.9082C111.669 18.9082 111.131 19.0072 110.647 19.2161C110.174 19.414 109.767 19.6998 109.437 20.0627C109.118 20.4255 108.866 20.8653 108.69 21.3711C108.514 21.8878 108.426 22.4376 108.426 23.0533C108.426 23.3941 108.459 23.735 108.525 24.0648C108.602 24.4057 108.701 24.7245 108.844 25.0324C108.976 25.3402 109.151 25.6261 109.371 25.89C109.58 26.1538 109.833 26.3847 110.108 26.5717C110.394 26.7696 110.724 26.9235 111.076 27.0334C111.438 27.1434 111.845 27.1984 112.274 27.1984C112.714 27.1984 113.11 27.1434 113.472 27.0334C113.835 26.9235 114.154 26.7696 114.44 26.5717C114.726 26.3847 114.979 26.1538 115.188 25.89C115.397 25.6261 115.561 25.3402 115.704 25.0324C115.847 24.7245 115.946 24.4057 116.012 24.0648C116.089 23.735 116.122 23.3941 116.122 23.0533ZM115.067 23.0533C115.067 23.5371 115.012 23.9769 114.891 24.3617C114.781 24.7575 114.616 25.0983 114.385 25.3842C114.154 25.6701 113.857 25.879 113.505 26.0439C113.154 26.1978 112.747 26.2748 112.274 26.2748C111.801 26.2748 111.394 26.1978 111.043 26.0439C110.702 25.879 110.405 25.6701 110.174 25.3842C109.943 25.0983 109.767 24.7575 109.646 24.3617C109.536 23.9769 109.481 23.5371 109.481 23.0533C109.481 22.5915 109.547 22.1517 109.668 21.7559C109.789 21.3601 109.976 21.0192 110.218 20.7334C110.449 20.4475 110.746 20.2276 111.087 20.0737C111.438 19.9087 111.834 19.8318 112.274 19.8318C112.714 19.8318 113.11 19.9087 113.461 20.0737C113.802 20.2276 114.099 20.4475 114.341 20.7334C114.572 21.0192 114.759 21.3601 114.88 21.7559C115.001 22.1517 115.067 22.5915 115.067 23.0533Z" fill="#E2E1D9"/>
<path fill-rule="evenodd" clip-rule="evenodd" d="M8.6875 17.4726L8.68763 27.2012L10.913 27.2111C12.9434 27.2201 13.2433 27.253 14.3342 27.5851C18.0297 28.71 20.906 31.1619 22.4507 34.5036C23.0786 35.8622 23.402 37.1558 23.6306 39.2231C24.087 43.3505 25.4479 45.5599 27.3549 46.3925C28.1019 46.7187 28.7254 47.0566 29.9458 47.0566C31.0022 47.0566 32.8939 46.9599 34.4632 44.334C36.1297 41.5453 37.3147 38.2727 38.1421 34.0852C39.1798 28.8332 38.4531 23.1225 37.8378 20.3802C36.7586 15.5704 34.7283 11.5799 32.3925 9.67802C31.4492 8.90984 30.1188 8.22691 29.1753 8.0265C28.1597 7.81081 25.8926 7.83977 24.969 8.08029C23.0731 8.57395 20.5643 10.1384 19.8481 12.791C19.3625 14.5896 19.9192 16.8512 20.3477 17.727C21.5009 20.0833 22.8944 21.2755 27.6871 24.0058C32.1459 26.5459 33.254 27.6486 33.6824 29.9719C33.9696 31.5307 33.4377 32.9695 32.289 33.7403C31.4508 34.3029 30.7382 34.4838 29.6801 34.403C27.9683 34.2724 26.8296 33.5052 25.6352 31.6779C25.1716 30.9688 22.3417 26.1154 19.3464 20.8926C16.3511 15.6697 13.43 10.5764 12.8551 9.57416L11.8098 7.75171L10.2487 7.74799L8.6875 7.74414V17.4726ZM44.2952 11.1973V14.6504H48.0818H51.8684V11.1973V7.74414H48.0818H44.2952V11.1973ZM58.1131 27.5332V47.0566H61.8997H65.6863V27.5332V8.00977H61.8997H58.1131V27.5332ZM71.931 27.5332V47.0566H75.7176H79.5042V27.5332V8.00977H75.7176H71.931V27.5332ZM44.2952 32.6465V47.0566H48.0818H51.8684V32.6465V18.2363H48.0818H44.2952V32.6465ZM85.3503 43.1386V47.0566H89.4026H93.455V43.1386V39.2207H89.4026H85.3503V43.1386Z" fill="#E2E1D9"/>
</svg>
