<svg width="87" height="109" viewBox="0 0 87 109" fill="none" xmlns="http://www.w3.org/2000/svg">
<path fill-rule="evenodd" clip-rule="evenodd" d="M10.8773 78.6875C7.08194 66.6205 -0.403649 42.2923 0.0170112 41.5157C0.542836 40.545 2.86861 40.6259 4.04161 41.8191C4.98001 42.7737 13.1694 61.2409 17.1468 70.3552C16.3648 65.9531 15.0354 56.6352 15.9738 54.5805C16.6949 53.0015 18.914 51.0327 21.1277 49.0689C22.5149 47.8382 23.9 46.6094 24.9128 45.4796C27.0161 43.1336 31.9912 36.9923 34.2159 34.2148C33.5148 29.6442 32.5332 20.4099 34.2159 20.0378C36.3192 19.5726 39.1506 25.0129 40.0202 27.9454C40.7159 30.2914 42.2651 36.635 42.9527 39.5135C45.3054 36.7496 50.2455 31.8203 51.1839 34.2148C52.3569 37.208 51.8108 39.5742 49.8491 42.1427C48.2797 44.1974 45.7975 47.111 44.7526 48.311L51.3861 79.2133L55.2893 78.6875C58.1274 72.3304 64.6126 59.3493 67.8485 58.2815C71.8933 56.9467 73.4505 58.2612 72.5202 60.4859C71.5899 62.7105 69.163 69.4856 68.8597 71.1844C68.617 72.5435 68.0844 77.7505 67.8485 80.1841C67.8485 80.1841 57.6731 107.011 42.9527 108.895C25.8853 111.079 10.8773 78.6875 10.8773 78.6875ZM24.8516 57.5123L26.9751 55.7124V65.2784L24.8516 57.5123Z" fill="#F0F0F0"/>
<rect x="38.0854" y="0.1909" width="10.4987" height="10.4987" rx="1.48902" stroke="white" stroke-width="0.3818"/>
<rect x="46.0151" y="15.0405" width="10.4987" height="10.4987" rx="1.48902" stroke="white" stroke-width="0.3818"/>
<rect x="52.8081" y="0.1909" width="10.4987" height="10.4987" rx="1.48902" fill="white" stroke="white" stroke-width="0.3818"/>
<path d="M60.7378 16.5295C60.7378 15.7072 61.4044 15.0405 62.2268 15.0405H69.7475C70.5699 15.0405 71.2365 15.7072 71.2365 16.5295V24.0502C71.2365 24.8726 70.5699 25.5392 69.7475 25.5392H62.2268C61.4044 25.5392 60.7378 24.8726 60.7378 24.0502V16.5295Z" stroke="white" stroke-width="0.3818"/>
<rect x="67.5346" y="29.0346" width="10.4987" height="10.4987" rx="1.48902" fill="white" stroke="white" stroke-width="0.3818"/>
<rect x="67.5346" y="0.1909" width="10.4987" height="10.4987" rx="1.48902" stroke="white" stroke-width="0.3818"/>
<path d="M75.4604 16.5295C75.4604 15.7072 76.1271 15.0405 76.9495 15.0405H80.7098H84.4701C85.2925 15.0405 85.9592 15.7072 85.9592 16.5295V24.0502C85.9592 24.8726 85.2925 25.5392 84.4702 25.5392H80.7098H76.9495C76.1271 25.5392 75.4604 24.8726 75.4604 24.0502V16.5295Z" stroke="white" stroke-width="0.3818"/>
<path d="M71.3867 3.98633L74.3597 6.87837" stroke="white" stroke-width="0.3818"/>
<path d="M74.3594 3.98633L71.3864 6.87837" stroke="white" stroke-width="0.3818"/>
<circle cx="51.265" cy="19.9994" r="1.92128" fill="white"/>
<circle cx="77.6167" cy="20.3022" r="0.820303" stroke="white" stroke-width="0.3818"/>
<circle cx="83.4799" cy="20.3022" r="0.820303" stroke="white" stroke-width="0.3818"/>
</svg>
