<svg width="167" height="109" viewBox="0 0 167 109" fill="none" xmlns="http://www.w3.org/2000/svg">
<path d="M0.926248 24.3131L27.3198 81.4532C27.4774 81.7943 27.7339 82.0802 28.0559 82.2737L71.82 108.573C72.2726 108.845 72.819 108.913 73.3247 108.761L161.305 82.3278C162.964 81.8293 163.117 79.54 161.539 78.8255L105.452 53.4318C105.036 53.2436 104.703 52.9102 104.516 52.4942L81.5311 1.46396C81.1516 0.62144 80.2147 0.181237 79.3239 0.426951L2.12932 21.7205C1.01405 22.0281 0.441106 23.2628 0.926248 24.3131Z" fill="#F0F0F0"/>
<path d="M32.0504 76.332L8.72173 26.0601C8.23376 25.0086 8.80784 23.7706 9.92576 23.4638L79.6869 4.31799C80.5756 4.07408 81.5098 4.51249 81.8901 5.35195L102.96 51.8604C103.417 52.8694 102.904 54.0525 101.855 54.4085L34.3528 77.3179C33.4462 77.6256 32.4534 77.2005 32.0504 76.332Z" fill="#383838"/>
<path d="M56.4362 65.3819C44.5667 46.2046 35.0352 25.7608 35.0352 25.2181L61.4717 19.0669L86.2897 10.3828C88.5677 16.2325 95.0562 29.5816 99.2383 35.8923C104.633 44.0336 114.645 60.7383 119.38 69.7239L68.1258 85.6447C68.1858 85.2829 65.9318 80.7238 56.4362 65.3819Z" fill="#E2E1D9"/>
<path d="M79.1562 72.4191C80.41 69.2013 83.444 63.203 85.5503 64.9515C88.1832 67.1371 85.9264 76.0619 86.1145 73.5119C86.3026 70.962 88.9354 60.216 89.3115 62.5837C89.6877 64.9515 89.1235 73.5119 91.5683 70.0513C94.013 66.5907 95.7056 60.216 93.825 62.5837C91.9444 64.9515 91.1921 68.2299 93.825 67.5014C96.4578 66.7728 97.3981 61.8553 97.9623 62.5837C98.4137 63.1665 98.025 64.5265 97.7743 65.1336C98.4011 63.5551 99.7301 60.653 100.031 61.673C100.407 62.948 99.4668 64.9514 100.783 63.3122C102.1 61.673 101.912 59.6695 103.04 59.1231C103.943 58.6859 104.795 58.4552 105.109 58.3945" stroke="#383838" stroke-width="0.26774"/>
<path d="M104.509 53.5815L136.552 3.50001C139.482 1.1665 142.046 3.85913 141.313 5.83356L108.904 56.2741C107.439 57.4708 104.399 59.8283 103.96 59.6847C103.52 59.5411 104.143 55.5561 104.509 53.5815Z" fill="white"/>
<path d="M20.8196 27.4231C22.5562 27.1305 25.523 29.1297 26.7893 30.1658C27.1512 30.3487 28.1643 30.6047 29.3221 30.1658C30.7693 29.6173 32.7592 28.703 38.9099 28.8859C43.8305 29.0322 51.9349 33.9448 55.372 36.3828C55.3117 36.8704 54.6484 37.9187 52.4776 38.2113C49.7641 38.577 49.5831 37.8456 45.9651 36.3828C43.0707 35.2125 40.538 35.8952 39.6335 36.3828L48.3168 53.205C42.2265 51.4374 29.7562 47.8292 28.5985 47.5366C27.4407 47.2441 21.1212 42.6606 18.1061 40.4055C17.684 40.1617 16.6226 38.8695 15.7543 35.6514C14.6689 31.6286 18.6487 27.7888 20.8196 27.4231Z" fill="#FFF9EB"/>
<path d="M77.2612 9.13806C73.7879 8.55294 71.9548 13.0389 71.4723 15.355L85.2209 11.3323C86.1254 12.856 87.9345 15.9767 87.9345 16.2692C87.9345 16.6349 87.5727 23.949 87.03 27.4231C86.4873 30.8972 89.3817 31.263 90.4671 31.263C91.3354 31.263 91.5525 26.7527 91.5525 24.4975L97.1605 34.7371C97.2811 34.0667 97.4499 32.2869 97.1605 30.5316C96.7987 28.3374 95.5324 20.2919 94.8088 16.6349C94.0852 12.9779 91.0098 10.6009 88.2963 10.6009C85.5827 10.6009 81.6029 9.86946 77.2612 9.13806Z" fill="#FFF9EB"/>
</svg>
