<svg width="103" height="110" viewBox="0 0 103 110" fill="none" xmlns="http://www.w3.org/2000/svg">
<path d="M21.0977 20.718V4.64174L36.3814 20.718V0.905704L54.8351 39.5114L68.5339 0V24.9635L87.6103 5.49083V22.1898L52.5709 47.2664L21.0977 20.718Z" fill="#E2E1D9"/>
<path d="M7.00029 12.002L55.0592 39.2863L102.043 12.002V81.6846L55.0592 109.082L7.45314 81.6846V64.1932L1 61.3062C2.73593 58.0419 6.33233 50.1661 6.83047 44.7771C7.32861 39.3882 7.15124 20.6816 7.00029 12.002Z" fill="#F0F0F0"/>
<path d="M55.0592 39.2863L7.00029 12.002C7.15124 20.6816 7.32861 39.3882 6.83047 44.7771C6.33233 50.1661 2.73593 58.0419 1 61.3062L7.45314 64.1932V81.6846L55.0592 109.082M55.0592 39.2863L102.043 12.002V81.6846L55.0592 109.082M55.0592 39.2863V109.082M55.0592 109.082H39.8887M55.0592 109.082H68.5316M63.154 87.1188V79.2505L85.5135 65.7215V73.7031M63.154 87.1188V94.9871L85.5135 81.6846V73.7031M63.154 87.1188L85.5135 73.7031M89.8722 24.795V32.5501L97.4575 27.7952M89.8722 24.795L97.4575 20.3231V27.7952M89.8722 24.795L97.4575 27.7952" stroke="#383838" stroke-width="1.22563" stroke-linecap="round" stroke-linejoin="round"/>
<path d="M55.966 38.8731L6.03906 10.4766V27.585C7.33281 28.0162 10.8495 29.3958 14.566 31.4653C19.2118 34.0521 25.3277 40.9896 26.0922 44.1056C26.8567 47.2215 25.2101 61.0376 30.7379 61.6843C36.2657 62.3311 39.2649 49.926 42.1464 47.4567C45.028 44.9874 49.7913 47.2215 50.1441 52.6892C50.497 58.1568 41.4995 60.3909 41.2055 65.6234C40.9703 69.8094 50.9478 82.3791 55.966 88.1407V38.8731Z" fill="#383838"/>
<ellipse cx="16.3158" cy="45.0756" rx="2.37747" ry="4.07567" transform="rotate(-31.6757 16.3158 45.0756)" fill="#383838"/>
<path d="M75.9139 72.2882C77.043 71.5281 78.2387 71.1491 79.2401 71.1247C80.2498 71.1002 80.9711 71.4296 81.3348 71.9697C81.6984 72.5098 81.7323 73.3021 81.3298 74.2284C80.9306 75.1471 80.1297 76.1125 79.0006 76.8727C77.8716 77.6329 76.6758 78.0118 75.6744 78.0362C74.6648 78.0607 73.9434 77.7313 73.5798 77.1912C73.2161 76.6511 73.1822 75.8588 73.5847 74.9325C73.9839 74.0138 74.7849 73.0484 75.9139 72.2882Z" stroke="#383838" stroke-width="1.22563" stroke-linecap="round" stroke-linejoin="round"/>
<path d="M63.1523 71.2206V79.2587L85.5119 65.8429V58.0312L63.1523 71.2206Z" fill="#383838"/>
</svg>
