<svg width="123" height="129" viewBox="0 0 123 129" fill="none" xmlns="http://www.w3.org/2000/svg">
<rect y="21.3965" width="105.51" height="41.5913" rx="1.92096" transform="rotate(-2.49235 0 21.3965)" fill="white"/>
<path fill-rule="evenodd" clip-rule="evenodd" d="M73.214 28.9986C71.1939 27.7848 69.0779 27.1928 67.0135 27.2642C64.8758 27.3381 57.5946 27.9666 57.0463 28.1246C56.2249 28.3612 55.3002 29.1852 54.895 30.0416C54.5581 30.7537 54.5652 32.6058 54.908 33.4305C55.4257 34.676 56.5945 35.5347 57.9154 35.6399C58.3266 35.6727 60.6713 35.537 63.126 35.3384C68.1286 34.9335 68.3848 34.9547 69.4599 35.8611C70.508 36.7449 70.7797 37.6076 70.8789 40.3653C70.9262 41.682 70.8926 42.0134 70.6637 42.4906C70.2615 43.3288 69.3975 44.0909 68.5827 44.326C67.6483 44.5958 48.9173 46.0147 48.2087 45.8694C47.5126 45.7267 46.6643 45.2183 46.2765 44.7113C46.1216 44.5091 45.8103 43.9547 45.5846 43.4795C45.2182 42.7081 45.1012 42.553 44.4939 42.0332C43.3403 41.0459 41.9523 40.7993 40.5462 41.3319C38.4195 42.1373 37.5919 44.3172 38.5293 46.6448C40.1644 50.7048 43.9478 53.4171 48.3827 53.7086C49.2199 53.7637 67.9744 52.3449 69.4803 52.1126C70.6126 51.9379 72.4309 51.2609 73.518 50.6095C74.2416 50.1758 74.5266 49.9271 75.6139 48.7814C76.9995 47.3213 77.3958 46.7094 78.0338 45.0448C78.738 43.2074 78.8659 41.0149 78.4661 37.6313C78.2 35.3798 77.6545 33.8583 76.4929 32.1286C75.7729 31.0565 74.302 29.6523 73.214 28.9986ZM46.2779 28.9815C44.547 27.7334 42.6511 27.0264 40.4762 26.8177C39.5735 26.7313 20.9257 28.0956 19.0771 28.3835C16.5794 28.7723 14.3854 29.9947 12.6323 31.9744C11.193 33.5997 10.3719 35.2566 9.98831 37.31C9.68146 38.9523 9.94203 43.222 10.4603 45.0439C11.8392 49.8916 16.5722 53.3921 21.5336 53.2338C24.2405 53.1474 30.9194 52.5414 31.6054 52.32C32.3126 52.0915 32.386 52.0407 32.9757 51.3713C33.4577 50.8241 33.6378 50.5331 33.7711 50.0858C33.9853 49.3673 33.905 47.8338 33.6137 47.0828C33.1444 45.8728 31.9686 44.9751 30.6995 44.8577C30.3326 44.8238 27.9886 44.9591 25.4909 45.1584C20.4021 45.5643 20.1538 45.544 19.077 44.6362C18.0289 43.7524 17.7572 42.8897 17.6581 40.1321C17.6108 38.8153 17.6443 38.4839 17.8732 38.0067C18.2754 37.1684 19.1395 36.4064 19.9538 36.1718C20.8791 35.9052 39.6244 34.4836 40.3237 34.627C41.0508 34.7761 42.0522 35.4287 42.3993 35.9796C42.5343 36.194 42.811 36.705 43.0139 37.1151C43.9782 39.0634 45.9941 39.875 48.102 39.1636C48.5409 39.0154 48.7574 38.8572 49.3286 38.2673C49.9234 37.6529 50.052 37.4592 50.2314 36.9076C50.5321 35.983 50.4794 35.1043 50.0556 33.9775C49.3684 32.1508 47.8042 30.082 46.2779 28.9815Z" fill="#383838"/>
<path d="M90.0469 37.4919L99.1783 33.2118C100.069 34.6385 101.895 37.6721 102.074 38.393C102.252 39.1139 108.384 22.6241 111.428 14.2891L122.564 17.6681L107.196 50.5576H97.842L90.0469 37.4919Z" fill="#383838"/>
<path d="M20.824 114.731L49.8346 80.1245C47.6089 78.9343 45.8659 76.9957 44.6288 74.6488C40.9429 75.5249 33.0436 76.3134 30.9338 72.4585C28.8239 68.6035 31.6664 63.9892 33.3513 62.164H42.5945C43.1586 57.9344 44.9592 53.9658 48.0764 51.4314C56.428 44.6415 65.2191 46.1747 72.4717 50.5553C78.2739 54.0598 79.2849 63.6972 79.0651 68.0778C84.12 75.0868 95.5484 80.1245 98.8451 80.1245C102.142 80.1245 103.9 74.4297 106.098 75.5249C107.833 76.3897 105.428 78.8909 103.957 80.0788C104.793 79.4184 106.653 78.3923 107.856 79.2484C109.087 80.1245 105.731 82.0958 103.9 82.9719C104.706 82.6799 106.537 82.4024 107.416 83.629C108.296 84.8556 103.387 85.7463 100.823 86.0384C101.263 86.1844 102.318 86.6078 103.021 87.1335C103.9 87.7906 103.021 88.8858 93.7902 88.0096C86.4056 87.3087 78.2592 80.5626 75.1091 77.2771C74.0541 79.0294 70.86 80.9276 69.3949 81.6577L71.5926 99.1802L97.0868 96.3328L110.054 115.17C108.589 116.484 104.691 118.805 100.823 117.579C96.955 116.352 93.4971 110.789 92.2517 108.161C87.8562 108.964 77.7464 110.745 72.4717 111.446C65.8784 112.322 62.8015 110.351 61.2631 108.599C60.0323 107.197 57.9664 95.8948 57.0873 90.419L28.2964 128.092L5 120.207C5.21978 119.039 6.5824 116.221 10.2747 114.293C13.9669 112.366 18.846 113.782 20.824 114.731Z" fill="white"/>
<path d="M44.6288 74.6488C45.8659 76.9957 47.6089 78.9343 49.8346 80.1245L20.824 114.731C18.846 113.782 13.9669 112.366 10.2747 114.293C6.5824 116.221 5.21978 119.039 5 120.207L28.2964 128.092L57.0873 90.419C57.9664 95.8948 60.0323 107.197 61.2631 108.599C62.8015 110.351 65.8784 112.322 72.4717 111.446C77.7464 110.745 87.8562 108.964 92.2517 108.161C93.4971 110.789 96.955 116.352 100.823 117.579C104.691 118.805 108.589 116.484 110.054 115.17L97.0868 96.3328L71.5926 99.1802L69.3949 81.6577C70.86 80.9276 74.0541 79.0294 75.1091 77.2771C78.2592 80.5626 86.4057 87.3087 93.7902 88.0096C103.021 88.8858 103.9 87.7906 103.021 87.1335C102.318 86.6078 101.263 86.1844 100.823 86.0384C103.387 85.7463 108.296 84.8556 107.416 83.629C106.537 82.4024 104.706 82.6799 103.9 82.9719C105.731 82.0958 109.087 80.1245 107.856 79.2484C106.625 78.3723 104.706 79.4674 103.9 80.1245C105.365 78.9563 107.856 76.401 106.098 75.5249C103.9 74.4297 102.142 80.1245 98.8451 80.1245C95.5484 80.1245 84.12 75.0868 79.0651 68.0778C79.2849 63.6972 78.2739 54.0598 72.4717 50.5553C65.2191 46.1747 56.428 44.6415 48.0764 51.4314C44.9592 53.9658 43.1586 57.9344 42.5945 62.164M44.6288 74.6488C40.9429 75.5249 33.0436 76.3134 30.9338 72.4585C28.8239 68.6035 31.6664 63.9892 33.3513 62.164H42.5945M44.6288 74.6488C42.7269 71.0406 42.0207 66.4672 42.5945 62.164" stroke="#383838" stroke-width="1.22563"/>
</svg>
