<svg width="25" height="24" viewBox="0 0 25 24" fill="none" xmlns="http://www.w3.org/2000/svg">
<path d="M2.5562 17.658L2.62284 17.4579L2.52604 17.2705C1.71068 15.6922 1.25 13.9006 1.25 12C1.25 5.64873 6.39873 0.5 12.75 0.5C19.1013 0.5 24.25 5.64873 24.25 12C24.25 18.3513 19.1013 23.5 12.75 23.5C10.1033 23.5 7.66669 22.6065 5.72339 21.1044L5.52231 20.949L5.27823 21.0198L1.02536 22.2543L2.5562 17.658Z" stroke="#1A61C7"/>
<path d="M18.0241 14.3189L15.7185 13.6568C15.4154 13.5698 15.0889 13.6558 14.8681 13.8809L14.3043 14.4553C14.0665 14.6975 13.7058 14.7754 13.3911 14.6481C12.3004 14.2067 10.0061 12.1667 9.42023 11.1464C9.25119 10.8521 9.27914 10.4841 9.48669 10.2155L9.97893 9.57868C10.1718 9.32918 10.2125 8.99409 10.0849 8.70566L9.11493 6.51175C8.88258 5.98628 8.21109 5.83331 7.77239 6.20433C7.12891 6.74857 6.3654 7.57562 6.27259 8.49186C6.10895 10.1073 6.80174 12.1436 9.42155 14.5888C12.4481 17.4136 14.8718 17.7868 16.4498 17.4045C17.3449 17.1877 18.0602 16.3186 18.5116 15.607C18.8194 15.1218 18.5764 14.4775 18.0241 14.3189Z" fill="#1A61C7"/>
</svg>
